inDegrees=no
num_controls=7
num_derivatives=13
num_iterations=104
num_multipliers=7
num_parameters=0
num_slacks=7
num_states=26
objective=0.445693
objective_accelerations=0.057309
objective_balance=0.003480
objective_effort=0.022810
objective_height=0.356552
objective_ligament=0.005541
solver_duration=1430.631205
status=Solve_Succeeded
success=true
DataType=double
version=3
OpenSimVersion=4.5
endheader
time	/jointset/ground_pelvis/pelvis_tilt/value	/jointset/ground_pelvis/pelvis_tx/value	/jointset/ground_pelvis/pelvis_ty/value	/jointset/hip_l/hip_flexion_l/value	/jointset/hip_l/hip_adduction_l/value	/jointset/hip_l/hip_rotation_l/value	/jointset/back/lumbar_extension/value	/jointset/patellofemoral_l/patellar_flexion_l/value	/jointset/knee_l/knee_flexion_l/value	/jointset/knee_l/knee_adduction_l/value	/jointset/knee_l/knee_rotation_l/value	/jointset/ankle_l/ankle_angle_l/value	/jointset/subtalar_l/subtalar_angle_l/value	/jointset/ground_pelvis/pelvis_tilt/speed	/jointset/ground_pelvis/pelvis_tx/speed	/jointset/ground_pelvis/pelvis_ty/speed	/jointset/hip_l/hip_flexion_l/speed	/jointset/hip_l/hip_adduction_l/speed	/jointset/hip_l/hip_rotation_l/speed	/jointset/back/lumbar_extension/speed	/jointset/patellofemoral_l/patellar_flexion_l/speed	/jointset/knee_l/knee_flexion_l/speed	/jointset/knee_l/knee_adduction_l/speed	/jointset/knee_l/knee_rotation_l/speed	/jointset/ankle_l/ankle_angle_l/speed	/jointset/subtalar_l/subtalar_angle_l/speed	/forceset/tau_hip_flexion_l	/forceset/tau_hip_adduction_l	/forceset/tau_hip_rotation_l	/forceset/tau_knee_flexion_l	/forceset/tau_ankle_angle_l	/forceset/tau_subtalar_angle_l	/forceset/tau_lumbar_extension	lambda_cid13_p0	lambda_cid13_p1	lambda_cid13_p2	lambda_cid13_p3	lambda_cid13_p4	lambda_cid13_p5	lambda_cid14_p0	/jointset/ground_pelvis/pelvis_tilt/accel	/jointset/ground_pelvis/pelvis_tx/accel	/jointset/ground_pelvis/pelvis_ty/accel	/jointset/hip_l/hip_flexion_l/accel	/jointset/hip_l/hip_adduction_l/accel	/jointset/hip_l/hip_rotation_l/accel	/jointset/back/lumbar_extension/accel	/jointset/patellofemoral_l/patellar_flexion_l/accel	/jointset/knee_l/knee_flexion_l/accel	/jointset/knee_l/knee_adduction_l/accel	/jointset/knee_l/knee_rotation_l/accel	/jointset/ankle_l/ankle_angle_l/accel	/jointset/subtalar_l/subtalar_angle_l/accel	gamma_cid13_p0	gamma_cid13_p1	gamma_cid13_p2	gamma_cid13_p3	gamma_cid13_p4	gamma_cid13_p5	gamma_cid14_p0
1.5	-0.3646816342812954	-0.02165247671167187	0.7629003333972838	1.098295833395809	-0.4348309816068138	-0.2127965492705614	-0.2248067012105079	0.8023637471702759	0.8023637471697717	-0.1313843195948738	-0.1453427987639211	0.1304642964579303	-0.0178364269863686	0.6701374769968543	0.2711545538335749	0.5291934893800608	-2.441104461368011	0.209948454376241	-0.7138568540725757	0.3162268418715907	-2.010328582941373	-2.010328582942364	-0.1304382385708687	0.1358981305091124	-0.404002266611022	0.03399628912617701	-0.1731053192360128	0.0294935420546289	-0.008203938410235334	-0.2032971974762854	0.040501255924584	0.04254029181245774	0.167295502807226	-19.13393362381693	-18.09431046185235	5.940436783252824	-7.257445162903047	-520.0984672327588	-61.23240546350303	-25.06003566661508	0.6569961359288593	0.6905120859425646	-0.5185371026155489	-1.267835413710199	0.7003896116588418	-0.1787471819950391	1.448298502479243	-1.30609266885825	-1.306092668858319	0.1176334938033323	0.2261344639010961	-0.5017096757092216	0.5018355408026588	4.757610335374676e-07	5.365525306683619e-07	-2.688604484841911e-06	-8.23686514702675e-08	6.832092061532686e-07	-2.710522168829194e-09	4.405225078269436e-07
1.51	-0.3579475054675785	-0.0189066894891055	0.768165274244086	1.073823253545484	-0.4326978807351305	-0.2199431469962475	-0.2215732103362977	0.7821976214814894	0.7821976214810211	-0.1326853812392525	-0.1439740232770481	0.1263994622523816	-0.01747299024247276	0.6765923858376161	0.2779656652183896	0.5236814961536198	-2.453067872406467	0.2166491947738683	-0.715338945227507	0.3304401377609762	-2.022610559507902	-2.02261055950878	-0.1297840742161588	0.1378593126230771	-0.4088926474586912	0.03869534196243751	-0.1672823835999062	0.02880820657562672	-0.0078451782451406	-0.2001987618734012	0.04022619263782864	0.04180540414616789	0.1625502256442484	-19.01023046362366	-17.80109893600227	5.898591333463557	-7.029712246835699	-516.1574890395109	-61.36427872178422	-25.97060499948304	0.6253658452792504	0.6708652230837933	-0.5844065153785721	-1.109028818811804	0.6515283268037904	-0.114057540920442	1.40316585076411	-1.146422347083784	-1.14642234706683	0.03798999682456858	0.1811845154441116	-0.4718698658074253	0.4545160048055285	3.950652579596325e-07	1.048727106278121e-06	-1.725559716500733e-06	9.86405809243885e-08	5.672124178676853e-07	1.145350347652829e-07	3.857036485274334e-07
1.52	-0.3511517020480285	-0.01609390024102439	0.7733717199420798	1.049241352610796	-0.4304984500448729	-0.2271007891252181	-0.2181985223594744	0.761917241587732	0.7619172415872985	-0.1339801648219832	-0.1425856210829725	0.1222878907230539	-0.01706244780026075	0.6824723981635546	0.2845549589365223	0.5174944596183649	-2.462968678240866	0.2232144180910601	-0.7160657347295691	0.344466262394197	-2.033179423935771	-2.033179423936536	-0.1291826262406582	0.13982347194904	-0.4133497313668263	0.04341742878940962	-0.1614594479637894	0.02812287109662763	-0.007486418080069185	-0.1971003262705152	0.03995112935107318	0.04107051647988194	0.1578049484812799	-18.88992036755362	-17.51034439780304	5.860623629308696	-6.829928706085046	-512.2841196841596	-61.53981931691745	-26.88076264694386	0.5420168329642205	0.6461485526061623	-0.6535457643783592	-0.8553143728991605	0.6732861955717597	-0.02768685142122622	1.410864251246283	-0.9634702411260438	-0.963470241126018	0.1070902179614662	0.226729906300724	-0.4150502878023687	0.5064423389449787	3.713816434624862e-07	1.33118362526041e-06	-1.327315964260514e-06	1.845445686860196e-07	5.413024392375245e-07	2.032553215820235e-07	3.702407628313008e-07
1.53	-0.3442999811420323	-0.01321639709138466	0.778513025356255	1.024570541955619	-0.4282342357692406	-0.2342620681101958	-0.2146848577652264	0.74153956552364	0.7415395655232201	-0.135269527728278	-0.141177672587252	0.1181338150475992	-0.01660483559312883	0.6877620721514133	0.2909003937866598	0.5106610665627774	-2.470836560867411	0.2296033487267214	-0.7161049813702784	0.35821453844879	-2.042065282311986	-2.042065282313104	-0.1286713869251759	0.141744482013172	-0.4173918229599826	0.04810854011426105	-0.1554103164964198	0.0269754058015503	-0.007154952875709901	-0.1944166622985125	0.04000246939260129	0.04031005874783789	0.1528509621295185	-18.67817918246772	-17.22460502377645	5.82358163158461	-6.620261441869952	-508.5546466010321	-61.78701041170655	-27.79057003640484	0.5060042210831144	0.6219816287053891	-0.713939877988284	-0.6989635602547483	0.6179629001481849	0.02109594437415842	1.348991581590109	-0.8076497906222685	-0.8076497906754029	0.02609248518017782	0.1711673038850858	-0.3877090170728797	0.4509434664554151	4.08273450113571e-07	1.369564709076013e-06	-1.529173291627556e-06	1.693992340250629e-07	6.111096958662493e-07	2.616675088990571e-07	3.965935990887566e-07
1.54	-0.3373986511882808	-0.01027679145774597	0.7835828560795066	0.999831764803632	-0.4259068789067347	-0.2414211116586263	-0.2110352739506277	0.7210817296448365	0.7210817296444242	-0.136553187902054	-0.1397512378414032	0.1139415343718128	-0.01610021268530836	0.6923942077147296	0.2969754557363154	0.5031995214336082	-2.47656197760286	0.2358429354657773	-0.7156186474201897	0.3716501064643549	-2.049211386878325	-2.049211386879799	-0.1280420797361506	0.1435207219739302	-0.4209907314331639	0.05281956892712027	-0.1493611850290442	0.02582794050647496	-0.006823487671377759	-0.191732998326508	0.04005380943412924	0.03954960101579652	0.1478969757777623	-18.46795775906941	-16.9419535038802	5.79086399597685	-6.448699279602258	-504.8656964289792	-62.08271126223875	-28.70079061781612	0.4105091480557674	0.5920739725097866	-0.7791761790947088	-0.4268211946799704	0.643417416250659	0.07742926673841159	1.348322643440691	-0.6155194791511931	-0.6155194791511924	0.1307037926700604	0.197775885625973	-0.3264136638073668	0.5104258365465304	4.212171124086423e-07	1.45069207048191e-06	-1.571789960666558e-06	1.788893583727868e-07	6.438007850065795e-07	3.151863255761382e-07	4.080531666953922e-07
